<?xml version="1.0" standalone="no"?>
<!DOCTYPE svg PUBLIC "-//W3C//DTD SVG 20010904//EN"
 "http://www.w3.org/TR/2001/REC-SVG-20010904/DTD/svg10.dtd">
<svg version="1.0" xmlns="http://www.w3.org/2000/svg"
 width="66.000000pt" height="66.000000pt" viewBox="0 0 66.000000 66.000000"
 preserveAspectRatio="xMidYMid meet">

<g transform="translate(0.000000,66.000000) scale(0.100000,-0.100000)"
fill="#000000" stroke="none">
<path d="M96 618 c-11 -15 -12 -26 -6 -39 16 -29 12 -39 -18 -39 -42 0 -52
-17 -52 -86 0 -66 6 -74 56 -74 17 0 24 -6 24 -19 0 -16 -8 -20 -37 -23 l-38
-3 0 -70 0 -70 38 -3 37 -3 0 -55 c0 -42 -3 -54 -16 -54 -11 0 -14 -8 -12 -27
3 -27 5 -28 63 -28 55 0 60 2 63 23 3 17 -2 25 -17 29 -15 4 -21 15 -24 47
l-4 41 -1 -42 c-1 -31 -6 -43 -17 -43 -12 0 -15 13 -15 55 l0 55 190 0 190 0
0 -54 c0 -46 -3 -54 -21 -59 -15 -4 -20 -12 -17 -29 3 -21 8 -23 63 -23 58 0
60 1 63 28 2 19 -1 27 -12 27 -12 0 -16 10 -16 40 0 22 -4 40 -10 40 -5 0 -10
-18 -10 -40 0 -29 -4 -40 -15 -40 -11 0 -15 13 -15 55 l0 54 63 3 62 3 0 70 0
70 -37 3 c-30 3 -38 7 -38 23 0 13 7 19 24 19 50 0 56 8 56 74 0 69 -10 86
-52 86 -30 0 -34 10 -18 40 15 29 -19 65 -53 56 -29 -7 -51 -56 -29 -64 7 -2
12 -10 12 -18 0 -11 -30 -14 -170 -14 -144 0 -170 2 -170 15 0 8 5 15 10 15
16 0 12 37 -6 54 -22 22 -50 20 -68 -6z m64 -18 c0 -16 -7 -20 -30 -20 -18 0
-30 5 -30 13 0 20 10 27 37 27 16 0 23 -6 23 -20z m398 -2 c3 -14 -3 -18 -27
-18 -25 0 -31 4 -31 21 0 16 5 20 27 17 17 -2 29 -10 31 -20z m-408 -48 c0 -5
-7 -10 -15 -10 -8 0 -15 5 -15 10 0 6 7 10 15 10 8 0 15 -4 15 -10z m390 0 c0
-5 -7 -10 -15 -10 -8 0 -15 5 -15 10 0 6 7 10 15 10 8 0 15 -4 15 -10z m-429
-101 c40 -48 40 -49 16 -49 -30 0 -102 82 -93 106 8 20 20 11 77 -57z m71 36
c17 -20 39 -47 50 -60 l19 -25 -39 0 c-36 0 -45 5 -92 60 l-52 60 41 0 c35 0
47 -6 73 -35z m87 -25 c49 -56 51 -60 28 -60 -17 0 -39 18 -76 60 -49 56 -51
60 -28 60 17 0 39 -18 76 -60z m101 0 l52 -60 -39 0 c-40 0 -44 3 -122 93
l-24 27 40 0 c38 0 45 -5 93 -60z m63 6 c26 -30 47 -57 47 -60 0 -3 -9 -6 -19
-6 -11 0 -41 26 -71 60 -48 56 -50 60 -28 60 17 0 39 -17 71 -54z m106 -6 l52
-60 -43 0 c-45 0 -40 -4 -121 97 l-18 23 39 0 c35 0 44 -6 91 -60z m55 13 c35
-45 41 -64 20 -69 -5 -2 -31 24 -57 57 -46 56 -47 59 -24 59 17 0 35 -14 61
-47z m34 18 c4 -29 -15 -25 -36 8 -15 22 -15 23 9 19 16 -2 25 -10 27 -27z
m-563 -67 c16 -25 16 -26 -7 -22 -15 2 -24 11 -26 26 -4 30 12 28 33 -4z m83
-61 c-5 -25 -28 -28 -28 -4 0 12 6 21 16 21 9 0 14 -7 12 -17z m352 -3 c0 -19
-7 -20 -170 -20 -163 0 -170 1 -170 20 0 19 7 20 170 20 163 0 170 -1 170 -20z
m40 -1 c0 -24 -23 -21 -28 4 -2 10 3 17 12 17 10 0 16 -9 16 -21z m-390 -152
c0 -5 -10 -7 -21 -5 -32 4 -103 92 -95 115 6 15 16 8 61 -42 30 -33 54 -64 55
-68z m49 64 c28 -32 51 -61 51 -65 0 -9 -63 -7 -75 2 -6 4 -32 33 -59 65 l-48
57 40 0 c36 0 45 -5 91 -59z m71 -3 c41 -50 49 -64 36 -66 -20 -4 -42 14 -98
81 -39 46 -39 47 -16 47 18 0 40 -17 78 -62z m101 0 l52 -63 -38 -3 c-40 -4
-60 12 -126 101 l-20 27 39 0 c37 0 45 -5 93 -62z m66 -1 c47 -56 50 -62 31
-65 -21 -4 -25 0 -99 91 -30 37 -30 37 -7 37 16 0 39 -19 75 -63z m101 1 l53
-63 -38 -3 c-34 -3 -41 1 -80 45 -69 77 -71 83 -25 83 34 0 43 -6 90 -62z m45
26 c43 -49 49 -61 40 -79 -7 -12 -17 -5 -48 32 -67 79 -69 83 -45 83 11 0 35
-16 53 -36z m45 9 c4 -27 -5 -29 -30 -6 -24 22 -23 35 5 31 14 -2 23 -11 25
-25z m-548 -95 c0 -4 -9 -8 -19 -8 -19 0 -31 18 -31 48 0 12 5 11 25 -8 14
-13 25 -27 25 -32z m100 -159 c0 -18 -5 -20 -47 -17 -36 2 -49 7 -51 21 -3 14
4 17 47 17 45 0 51 -3 51 -21z m398 4 c-2 -14 -15 -19 -51 -21 -42 -3 -47 -1
-47 17 0 18 6 21 51 21 43 0 50 -3 47 -17z"/>
</g>
</svg>
