<?xml version="1.0" encoding="utf-8"?>
<!-- Generator: Adobe Illustrator 27.5.0, SVG Export Plug-In . SVG Version: 6.00 Build 0)  -->
<svg version="1.1" xmlns="http://www.w3.org/2000/svg" xmlns:xlink="http://www.w3.org/1999/xlink" x="0px" y="0px"
	 viewBox="0 0 500 500" style="enable-background:new 0 0 500 500;" xml:space="preserve">
<g id="BACKGROUND">
	<rect style="fill:#FFFFFF;" width="500" height="500"/>
</g>
<g id="OBJECTS">
	<g>
		<path style="fill:#1F2220;" d="M339.75,175.154c0,0,23.837,57.891,0,112.862c-23.203,53.508-84.161,95.349-70.052,114.321
			c-10.703-24.323,57.403-41.351,92.915-97.295C386.876,266.821,381.586,203.855,339.75,175.154z"/>
		<path style="fill:#1F2220;" d="M380.614,241.801c0,0,19.945,63.241-71.998,121.132c-8.271,6.324-13.622,11.189-18.973,21.891
			c16.054-22.864,51.565-19.945,85.618-68.593C409.315,267.584,380.614,241.801,380.614,241.801z"/>
		<path style="fill:#1F2220;" d="M311.271,132.986c6.918-1.448,17.191-1.904,24.587,5.196
			c-15.081-28.215-47.675-30.648-47.675-30.648s11.675-0.486,19.459,0.486c-19.693-13.699-45.032-10.822-50.831-9.935
			c0.399-8.488-0.296-22.107-6.735-34.985c-10.378-20.756-15.567-3.892-15.567-3.892s-4.865,10.379-6.486,20.432
			c-0.113,0.7-0.217,1.347-0.315,1.953c-1.938-6.596-6.774-15.324-18.819-19.465c6.486,4.865,12.324,19.134,12.324,19.134
			s-11.675-13.296-32.107-5.513c5.283-0.264,5.618,11.731,5.56,16.193c-0.016,0.007-0.031,0.013-0.046,0.021
			c-13.945-28.54-19.783-35.35-22.054-34.702c-2.27,0.648-15.567,35.999-1.946,59.35c-14.918,20.756-18.161,32.756-28.54,36
			c6.607-0.281,12.781-2.879,17.663-5.731c15.208-11.344,23.85-33.833,23.85-33.833c0.587,7.639-6.81,24.86-22.287,33.711
			c-6.062,6.503-12.364,16.573-8.848,28.23c3.567-11.351,9.081-14.594,9.081-14.594s-11.027,11.999-6.162,24.973
			c4.865,12.973,9.081,33.404,9.081,33.404s-8.433,39.567-7.784,54.485c-11.999,24.648-22.053,41.189-1.621,58.054
			c3.568,18.485,6.811,22.378,14.27,22.378l1.134,0.001c29.258,9.752,39.48-35.683,40.729-41.869
			c0.045-0.231,0.091-0.463,0.135-0.697c0,0-0.045,0.249-0.135,0.697c-6.64,34.333-21.884,52.74-40.729,41.869
			c0,0,0.973,9.486,18,7.297c17.027-2.188,21.405-34.297,27.485-46.701c6.081-12.406,21.648-27.729,28.458-49.134
			c3.247-2.797,6.67-5.268,10.021-8.183c35.447-49.313,12.356-132.408,12.356-132.408c21.467,69.569,4.494,109.244-2.43,121.429
			c-27.115,50.9-109.465,177.677-32.597,213.265c-23.349-59.833,83.715-113.336,106.334-183.385
			C358.129,213.798,335.775,155.743,311.271,132.986z M242.211,67.643c8.56,5.095,8.069,28.969,7.686,36.579l-0.254,0.264
			c-0.404-6.786-2.048-28.141-6.944-32.221c-5.352,14.594-2.919,35.999,3.405,43.295C235.609,107.437,234.185,82.724,242.211,67.643
			z M220.077,132.831c11.189-13.135,8.271-22.864,8.271-22.864c9.243,23.836-34.54,35.999-35.026,61.295
			C183.592,157.641,208.889,145.965,220.077,132.831z M183.592,86.129c-0.73,9.243-11.676,19.945-11.676,19.945
			s7.784-14.594,9.243-18.729c1.459-4.135-6.567-16.783-6.567-16.783s-4.378,9.243-5.108,18.486
			c-1.216-7.783,4.135-25.54,4.135-25.54S184.321,76.886,183.592,86.129z M208.564,96.507c0,0-6.486,35.351-38.593,58.702
			C183.267,143.857,203.699,114.669,208.564,96.507z M160.241,298.232c4.865-17.027,19.459-104.106,19.459-104.106
			S173.862,261.747,160.241,298.232z M180.186,312.826c-8.027,5.107-7.297,18.485,1.216,25.782
			c-15.567-3.892-14.108-33.08-3.648-36.484c10.459-3.406,16.783,10.702,16.783,10.702S188.213,307.718,180.186,312.826z
			 M204.997,284.124c-2.676,14.594-1.946,47.675-9.244,53.27c8.756-26.757,2.19-40.864,8.027-58.377
			c5.838-17.514,34.54-60.566,34.54-60.566S207.672,269.53,204.997,284.124z M222.834,188.126c0,0,0.616-2.648,1.994-5.48
			c1.603,2.306,4.269,3.818,7.289,3.818c4.744,0,8.606-3.722,8.855-8.405c1.058,0.706,1.645,1.31,1.645,1.31
			S240.347,191.694,222.834,188.126z M235.307,175.432c1.406-0.786,3.027-0.568,3.616,0.487c0.59,1.056-0.072,2.549-1.48,3.335
			c-1.407,0.786-3.026,0.568-3.616-0.488C233.236,177.711,233.899,176.218,235.307,175.432z M219.348,173.694
			c13.621-13.622,23.593-15.81,31.62-7.297C234.672,160.56,219.348,173.694,219.348,173.694z M225.915,449.038
			c-29.675-45.728-0.487-110.916,66.646-174.644C292.561,274.395,194.294,375.094,225.915,449.038z M299.373,307.474
			c-47.575,53.8-67.621,102.16-67.621,102.16s8.557-44.652,58.377-101.186c58.733-66.646,31.154-131.151,22.011-148.319
			c-0.844-1.501-1.694-2.981-2.551-4.433c0,0,1.016,1.55,2.551,4.433C333.35,197.855,349.434,250.863,299.373,307.474z"/>
	</g>
</g>
</svg>
