<?xml version="1.0" standalone="no"?>
<!DOCTYPE svg PUBLIC "-//W3C//DTD SVG 20010904//EN"
 "http://www.w3.org/TR/2001/REC-SVG-20010904/DTD/svg10.dtd">
<svg version="1.0" xmlns="http://www.w3.org/2000/svg"
 width="512.000000pt" height="512.000000pt" viewBox="0 0 512.000000 512.000000"
 preserveAspectRatio="xMidYMid meet">

<g transform="translate(0.000000,512.000000) scale(0.100000,-0.100000)"
fill="#000000" stroke="none">
<path d="M628 4681 c-157 -52 -257 -179 -266 -342 -8 -140 41 -240 195 -399
l83 -85 -15 -45 c-58 -177 -27 -393 79 -553 49 -73 149 -165 224 -205 124 -66
524 -195 752 -242 l135 -28 -2 -42 c-3 -55 -46 -186 -93 -280 -70 -138 -166
-258 -307 -382 l-53 -45 0 -107 c0 -59 5 -116 10 -127 13 -24 200 -119 235
-119 54 0 355 291 454 439 85 129 154 271 195 403 4 15 10 16 36 7 l30 -11 0
-499 0 -499 -93 0 c-59 0 -99 -5 -110 -12 -9 -7 -75 -91 -147 -187 l-130 -174
0 -349 c0 -389 1 -395 66 -444 l37 -29 618 0 c608 0 618 0 645 21 15 11 37 33
48 48 20 26 21 42 24 390 l3 362 -131 174 c-72 96 -138 181 -147 187 -11 8
-51 13 -110 13 l-93 0 0 499 0 499 61 23 c126 47 287 175 355 284 27 42 35 47
124 76 148 49 264 96 400 162 111 54 134 70 205 141 137 138 190 275 183 470
-4 105 -10 131 -111 481 -81 281 -112 374 -128 388 -38 31 -70 21 -170 -54
-120 -90 -251 -167 -361 -213 l-87 -36 -713 0 c-657 0 -726 2 -878 20 -320 40
-425 87 -627 282 -123 119 -177 148 -291 154 -57 3 -91 -1 -134 -15z m201
-161 c26 -12 79 -56 130 -108 198 -203 348 -266 749 -317 l52 -7 0 -199 c0
-109 -2 -199 -4 -199 -34 0 -478 55 -526 65 -135 28 -296 98 -423 183 -86 58
-226 204 -261 273 -94 189 94 394 283 309z m3055 -483 c76 -267 86 -312 86
-383 0 -44 -7 -105 -16 -135 -17 -58 -63 -149 -75 -149 -4 0 -13 23 -19 52
-22 88 -87 126 -137 78 -35 -32 -36 -55 -9 -149 14 -50 26 -94 26 -100 0 -6
-28 -25 -62 -42 -62 -32 -323 -139 -337 -139 -4 0 -2 33 5 73 9 51 13 203 14
518 l0 445 48 17 c26 9 50 17 54 17 3 0 21 -43 38 -95 34 -101 53 -125 103
-125 34 0 77 40 77 73 0 12 -15 69 -34 125 l-35 102 87 59 c48 33 90 60 93 60
3 1 45 -135 93 -302z m-1564 -653 c0 -659 -1 -696 -17 -690 -111 42 -249 173
-311 296 -69 137 -72 165 -72 658 l0 432 200 0 200 0 0 -696z m320 -759 l0
-1456 -25 -24 c-32 -33 -78 -33 -110 0 l-25 24 0 1456 0 1455 80 0 80 0 0
-1455z m560 1023 c0 -493 -3 -521 -72 -658 -53 -104 -152 -210 -249 -263 -36
-21 -69 -37 -72 -37 -4 0 -7 313 -7 695 l0 695 200 0 200 0 0 -432z m-2340 73
c186 -96 293 -123 620 -161 140 -16 261 -30 268 -30 9 0 12 -39 12 -159 0
-169 13 -267 49 -361 12 -30 21 -58 21 -61 0 -8 -122 16 -260 51 -156 40 -490
154 -561 191 -184 98 -280 303 -245 522 4 26 10 47 14 47 3 0 40 -17 82 -39z
m1225 -1084 l30 -25 -24 -72 c-33 -105 -122 -277 -189 -367 -66 -87 -144 -170
-245 -257 l-68 -59 -34 16 c-30 14 -35 22 -35 51 0 29 12 45 89 121 160 156
279 352 335 550 16 55 30 106 32 113 4 13 11 9 109 -71z m235 -1339 l0 -62
-80 -82 -80 -82 0 -191 c0 -190 0 -192 25 -216 l24 -25 351 0 351 0 24 25 c25
24 25 26 25 216 l0 191 -80 82 -80 82 0 62 0 62 60 0 60 0 100 -133 100 -134
0 -306 0 -307 -560 0 -560 0 0 307 0 306 100 134 100 133 60 0 60 0 0 -62z
m91 -281 c88 -76 211 -75 300 1 l40 34 25 -23 c22 -21 24 -29 24 -126 l0 -103
-240 0 -240 0 0 102 c0 91 2 104 22 125 12 13 23 23 26 23 2 0 21 -15 43 -33z"/>
<path d="M3625 3815 c-29 -28 -31 -48 -9 -121 25 -88 89 -120 139 -69 29 28
31 56 9 131 -24 84 -88 111 -139 59z"/>
</g>
</svg>
